# xmcd
#
# Track frame offsets: 
#        150
#        12340
#        24879
#        35929
#        48269
#        60969
#        73050
#        84562
#        97142
#        107530
#        120692
#        133322
#
# Disc length: 1930 seconds
#
# Revision: 0
# Processed by: cddbd v1.5.2PL0 Copyright (c) Steve Scherf et al.
# Submitted via: ExactAudioCopy v0.99pb3
#
DISCID=a107880c
DTITLE=Dion - Runaround Sue
DYEAR=1961
DGENRE=Oldies
TTITLE0=Runaround Sue
TTITLE1=Somebody Nobody Wants
TTITLE2=Dream Lover
TTITLE3=Life Is But a Dream
TTITLE4=The Wanderer
TTITLE5=Runaway Girl
TTITLE6=The Majestic
TTITLE7=Little Star
TTITLE8=Lonely World
TTITLE9=In the Still of the Night
TTITLE10=Kansas City
TTITLE11=Take Good Care of My Baby
EXTD=
EXTT0=
EXTT1=
EXTT2=
EXTT3=
EXTT4=
EXTT5=
EXTT6=
EXTT7=
EXTT8=
EXTT9=
EXTT10=
EXTT11=
PLAYORDER=
